<?xml version="1.0" encoding="utf-8"?>
<!-- Generator: Adobe Illustrator 16.0.0, SVG Export Plug-In . SVG Version: 6.00 Build 0)  -->
<!DOCTYPE svg PUBLIC "-//W3C//DTD SVG 1.1//EN" "http://www.w3.org/Graphics/SVG/1.1/DTD/svg11.dtd">
<svg version="1.1" id="Layer_1" xmlns="http://www.w3.org/2000/svg" xmlns:xlink="http://www.w3.org/1999/xlink" x="0px" y="0px"
	 width="50px" height="50px" viewBox="0 0 50 50" enable-background="new 0 0 50 50" xml:space="preserve">
<path fill="#FFFFFF" d="M25,0C11.193,0,0,11.193,0,25s11.193,25,25,25c13.808,0,25.001-11.193,25.001-25S38.808,0,25,0z
	 M30.26,36.216c-0.042,0-0.085-0.008-0.128-0.008H16.857c-0.044,0-0.085,0.008-0.128,0.008c-4.533,0-8.206-3.674-8.206-8.207
	c0-4.532,3.673-8.205,8.206-8.205c1.162,0,2.266,0.245,3.269,0.681c1.738-3.945,5.675-6.701,10.262-6.701
	c6.196,0,11.216,5.02,11.216,11.215C41.476,31.193,36.456,36.216,30.26,36.216z"/>
</svg>
