<?xml version="1.0" encoding="utf-8"?>
<!-- Generator: Adobe Illustrator 16.0.0, SVG Export Plug-In . SVG Version: 6.00 Build 0)  -->
<!DOCTYPE svg PUBLIC "-//W3C//DTD SVG 1.1//EN" "http://www.w3.org/Graphics/SVG/1.1/DTD/svg11.dtd">
<svg version="1.1" id="Layer_1" xmlns="http://www.w3.org/2000/svg" xmlns:xlink="http://www.w3.org/1999/xlink" x="0px" y="0px"
	 width="100px" height="16.228px" viewBox="0 0 100 16.228" enable-background="new 0 0 100 16.228" xml:space="preserve">
<ellipse fill="#D0E3C9" cx="83.333" cy="16.227" rx="25.5" ry="11.658"/>
<ellipse fill="#D0E3C9" cx="95.438" cy="5.809" rx="10.688" ry="5.532"/>
<ellipse fill="#D0E3C9" cx="61.229" cy="2.719" rx="0.854" ry="0.442"/>
<ellipse fill="#D0E3C9" cx="79.004" cy="8.344" rx="22.629" ry="7.559"/>
<ellipse fill="#DCEBD3" cx="6.121" cy="13.484" rx="38.563" ry="11.657"/>
<ellipse fill="#DCEBD3" cx="46.187" cy="15.714" rx="38.563" ry="11.656"/>
<ellipse fill="#DCEBD3" cx="75.604" cy="4.384" rx="2" ry="0.605"/>
<ellipse fill="#DCEBD3" cx="1.583" cy="5.809" rx="10.125" ry="5.532"/>
<ellipse fill="#E8F3E0" cx="85.979" cy="14.411" rx="38.562" ry="11.656"/>
<ellipse fill="#E8F3E0" cx="24.729" cy="18.879" rx="38.562" ry="11.656"/>
<ellipse fill="#E8F3E0" cx="9.121" cy="9.416" rx="21.629" ry="6.3"/>
<ellipse fill="#E8F3E0" cx="46.104" cy="9.019" rx="0.923" ry="0.397"/>
<ellipse fill="#F3F9EE" cx="106.125" cy="18.221" rx="38.562" ry="11.656"/>
<ellipse fill="#F3F9EE" cx="1.367" cy="11.799" rx="10.465" ry="5.353"/>
<ellipse fill="#F3F9EE" cx="22.813" cy="10.748" rx="0.94" ry="0.459"/>
<ellipse fill="#F3F9EE" cx="13.05" cy="15.552" rx="15.625" ry="5.354"/>
<ellipse fill="#F3F9EE" cx="46.187" cy="22.408" rx="38.563" ry="11.656"/>
<ellipse fill="#DCEBD3" cx="10.5" cy="0.785" rx="0.931" ry="0.508"/>
<ellipse fill="#DCEBD3" cx="27.967" cy="3.051" rx="0.708" ry="0.332"/>
<ellipse fill="#FFFFFF" cx="16.792" cy="22.832" rx="40.667" ry="9.088"/>
<ellipse fill="#FFFFFF" cx="65.862" cy="23.499" rx="40.667" ry="9.088"/>
<ellipse fill="#FFFFFF" cx="75.665" cy="28.43" rx="1.298" ry="0.544"/>
<ellipse fill="#FFFFFF" cx="-2.575" cy="16.774" rx="20.892" ry="6.025"/>
<ellipse fill="#FFFFFF" cx="100" cy="18.221" rx="15.979" ry="6.025"/>
</svg>
