<?xml version="1.0" encoding="utf-8"?>
<!-- Generator: Adobe Illustrator 16.0.0, SVG Export Plug-In . SVG Version: 6.00 Build 0)  -->
<!DOCTYPE svg PUBLIC "-//W3C//DTD SVG 1.1//EN" "http://www.w3.org/Graphics/SVG/1.1/DTD/svg11.dtd">
<svg version="1.1" xmlns="http://www.w3.org/2000/svg" xmlns:xlink="http://www.w3.org/1999/xlink" x="0px" y="0px"
	 width="81.668px" height="67.97px" viewBox="0 0 81.668 67.97" enable-background="new 0 0 81.668 67.97" xml:space="preserve">
<g id="Layer_1" display="none">
	<path fill="#DCDBDB" d="M81.668-37.734h-100V-43c0-3.313,2.687-6,6-6h88c3.313,0,6,2.687,6,6V-37.734z"/>
	<circle fill="#4AB859" cx="3.669" cy="-43.367" r="2.333"/>
	<circle fill="#FDBB4F" cx="-3.998" cy="-43.367" r="2.333"/>
	<circle fill="#F05452" cx="-11.664" cy="-43.367" r="2.333"/>
	<circle fill="#391212" cx="-11.664" cy="-43.367" r="0.833"/>
	<circle fill="#50A045" cx="31.668" cy="4.667" r="31.167"/>
	<circle fill="#9BCD67" cx="31.668" cy="4.667" r="27.333"/>
	<polygon fill="#50A045" points="33.909,5.895 31.668,8.131 29.432,5.895 31.668,-19.125 	"/>
	<circle display="inline" fill="#F2F2F2" cx="32.954" cy="14.456" r="36.25"/>
	<path display="inline" fill="#93D0C2" d="M37.98-1.113c-5.503,0-10.226,3.305-12.312,8.04c-1.203-0.523-2.527-0.818-3.921-0.818
		c-5.438,0-9.845,4.408-9.845,9.846s4.407,9.844,9.845,9.844c0.052,0,0.102-0.008,0.154-0.008h15.926
		c0.052,0,0.104,0.008,0.153,0.008c7.434,0,13.456-6.025,13.456-13.457S45.414-1.113,37.98-1.113z"/>
	<g display="inline">
		<path fill="#FFFFFF" d="M32.82,7.301c0.439,0,0.879,0,1.319,0c0,0.723,0,1.443,0,2.166c0.138,0.018,0.264,0.033,0.389,0.049
			c0.494,0.061,0.979,0.162,1.438,0.361c0.544,0.234,0.981,0.588,1.209,1.152c0.195,0.484,0.227,0.99,0.13,1.5
			c-0.085,0.449-0.304,0.826-0.664,1.113c-0.129,0.104-0.271,0.189-0.409,0.287c0.139,0.043,0.276,0.08,0.41,0.129
			c0.651,0.236,1.145,0.641,1.353,1.326c0.061,0.201,0.085,0.412,0.126,0.617c0,0.18,0,0.357,0,0.537
			c-0.03,0.189-0.053,0.381-0.091,0.57c-0.157,0.762-0.561,1.346-1.251,1.723c-0.579,0.314-1.212,0.447-1.858,0.523
			c-0.257,0.031-0.516,0.051-0.785,0.078c0,0.727,0,1.451,0,2.178c-0.443,0-0.874,0-1.317,0c0-0.719,0-1.434,0-2.156
			c-0.355,0-0.699,0-1.057,0c0,0.723,0,1.439,0,2.154c-0.442,0-0.873,0-1.316,0c0-0.73,0-1.455,0-2.186c-0.041,0-0.07,0-0.101,0
			c-0.805-0.004-1.609-0.006-2.414-0.01c-0.048,0-0.096-0.008-0.144-0.012c0-0.016,0-0.029,0-0.045
			c0.006-0.01,0.016-0.018,0.018-0.027c0.076-0.457,0.157-0.914,0.224-1.371c0.016-0.107,0.053-0.125,0.146-0.123
			c0.278,0.006,0.559-0.004,0.838,0.002c0.33,0.008,0.497-0.252,0.497-0.52c-0.001-1.924-0.001-3.848-0.001-5.771
			c0-0.035-0.002-0.074-0.011-0.109c-0.084-0.357-0.332-0.553-0.716-0.557c-0.332-0.004-0.663-0.002-0.995-0.002
			c0-0.469,0-0.939,0-1.408c0.885,0,1.77,0,2.662,0c0-0.732,0-1.451,0-2.17c0.439,0,0.879,0,1.319,0c0,0.705,0,1.412,0,2.111
			c0.356,0,0.7,0,1.052,0C32.82,8.7,32.82,8,32.82,7.301z M31.798,14.952c0,0.973,0,1.932,0,2.896
			c0.028,0.002,0.05,0.006,0.071,0.006c0.655,0.016,1.311,0.014,1.96-0.088c0.329-0.051,0.651-0.133,0.951-0.287
			c0.433-0.221,0.706-0.557,0.717-1.057c0.009-0.461-0.191-0.824-0.59-1.066c-0.467-0.283-0.991-0.369-1.521-0.4
			c-0.486-0.027-0.975-0.012-1.462-0.014C31.883,14.942,31.843,14.948,31.798,14.952z M31.798,10.979c0,0.885,0,1.756,0,2.629
			c0.495,0.021,0.981,0.021,1.468-0.037c0.359-0.045,0.704-0.125,1.028-0.295c0.792-0.414,0.752-1.535,0.069-1.945
			C34,11.114,33.6,11.022,33.188,10.997c-0.412-0.027-0.826-0.02-1.239-0.025C31.901,10.969,31.853,10.975,31.798,10.979z"/>
	</g>
	<path display="inline" fill="#F2F2F2" d="M4.8-27.711c0,1.656-1.343,3-3,3h-12.833c-1.657,0-3-1.344-3-3v-16.5c0-1.657,1.343-3,3-3
		H1.8c1.657,0,3,1.343,3,3V-27.711z"/>
	<path display="inline" fill="#F2F2F2" d="M29.085-27.711c0,1.656-1.343,3-3,3H13.251c-1.657,0-3-1.344-3-3v-16.5
		c0-1.657,1.343-3,3-3h12.833c1.657,0,3,1.343,3,3V-27.711z"/>
	<path display="inline" fill="#F2F2F2" d="M53.086-27.711c0,1.656-1.344,3-3,3H37.252c-1.656,0-3-1.344-3-3v-16.5
		c0-1.657,1.344-3,3-3h12.834c1.656,0,3,1.343,3,3V-27.711z"/>
	<path display="inline" fill="#F2F2F2" d="M77.37-27.711c0,1.656-1.342,3-3,3H61.538c-1.658,0-3-1.344-3-3v-16.5
		c0-1.657,1.342-3,3-3H74.37c1.658,0,3,1.343,3,3V-27.711z"/>
	<path display="inline" fill="#A5A4A4" d="M2.634-29.609c0,1.275-1.034,2.31-2.31,2.31h-9.881c-1.275,0-2.31-1.035-2.31-2.31
		v-12.704c0-1.275,1.034-2.31,2.31-2.31h9.881c1.275,0,2.31,1.034,2.31,2.31V-29.609z"/>
	<path display="inline" fill="#BFBFBF" d="M2.634-32.833c0,1.275-1.034,2.31-2.31,2.31h-9.881c-1.275,0-2.31-1.035-2.31-2.31v-9.48
		c0-1.275,1.034-2.31,2.31-2.31h9.881c1.275,0,2.31,1.034,2.31,2.31V-32.833z"/>
	<ellipse display="inline" fill="#A5A4A4" cx="-4.616" cy="-37.573" rx="4.167" ry="3.407"/>
</g>
<g id="Layer_2">
	
		<linearGradient id="SVGID_1_" gradientUnits="userSpaceOnUse" x1="-98.9351" y1="-44.2793" x2="-32.6147" y2="-44.2793" gradientTransform="matrix(-4.371139e-08 1 -1 -4.371139e-08 17.856 101.0195)">
		<stop  offset="0" style="stop-color:#5EB59F"/>
		<stop  offset="1" style="stop-color:#5EB59F;stop-opacity:0"/>
	</linearGradient>
	<polygon fill="url(#SVGID_1_)" points="40.168,68.405 40.168,17.5 84.103,2.084 84.103,68.344 	"/>
	
		<linearGradient id="SVGID_2_" gradientUnits="userSpaceOnUse" x1="39.4985" y1="-1.0908" x2="39.4985" y2="41.3099" gradientTransform="matrix(-4.371139e-08 -1 1 -4.371139e-08 2.1807 82.811)">
		<stop  offset="0" style="stop-color:#5EB59F"/>
		<stop  offset="1" style="stop-color:#5EB59F;stop-opacity:0"/>
	</linearGradient>
	<polygon opacity="0.5" fill="url(#SVGID_2_)" points="84.103,17.5 84.103,69.125 1.09,69.125 1.09,43.036 2.668,42.995 
		1.09,40.496 1.09,17.5 	"/>
	<polygon opacity="0.8" fill="#5BB6A2" points="84.103,4.251 40.168,19.667 40.168,17.5 84.103,2.084 	"/>
	<polygon opacity="0.8" fill="#5BB6A2" points="84.103,17.065 40.168,32.481 40.168,30.314 84.103,14.898 	"/>
	<polygon opacity="0.8" fill="#5BB6A2" points="84.103,29.841 40.168,45.257 40.168,43.09 84.103,27.674 	"/>
	<rect x="1.09" y="17.5" opacity="0.3" fill="#5BB6A2" width="39.079" height="2.167"/>
	<rect x="1.09" y="30.223" opacity="0.3" fill="#5BB6A2" width="39.079" height="2.167"/>
	<rect x="1.09" y="43.035" opacity="0.3" fill="#5BB6A2" width="39.079" height="2.167"/>
	<rect x="1.09" y="55.802" opacity="0.3" fill="#5BB6A2" width="39.079" height="2.167"/>
	<line opacity="0.3" fill="none" stroke="#5BB6A2" stroke-miterlimit="10" x1="40.835" y1="20.274" x2="40.835" y2="29.713"/>
	<line opacity="0.3" fill="none" stroke="#5BB6A2" stroke-miterlimit="10" x1="40.835" y1="33.162" x2="40.835" y2="42.601"/>
	<line opacity="0.3" fill="none" stroke="#5BB6A2" stroke-miterlimit="10" x1="40.835" y1="46.22" x2="40.835" y2="55.66"/>
	<polyline fill="none" stroke="#FFFFFF" stroke-width="0.5" stroke-miterlimit="10" points="0.888,17.254 0.888,27.625 
		2.668,30.125 	"/>
	<line fill="none" stroke="#FFFFFF" stroke-miterlimit="10" x1="84.103" y1="1" x2="84.103" y2="43.036"/>
	<path fill="none" stroke="#FFFFFF" stroke-width="0.5" stroke-miterlimit="10" d="M83.642,13.813
		c0.741,0.174,0.463,0.584-0.865,1.061L43.236,29.071c-1.771,0.637-4.736,1.152-6.625,1.152H2.31
		c-0.707-0.001-1.163-0.073-1.363-0.197"/>
	<path opacity="0.35" fill="none" stroke="#FFFFFF" stroke-width="0.5" stroke-miterlimit="10" d="M1.207,30.125
		c-0.333-0.207,0.045-0.558,1.151-0.955l39.541-14.197c1.771-0.636,4.736-1.151,6.625-1.151h34.3c0.472,0,0.832,0.032,1.078,0.091"
		/>
	<path fill="none" stroke="#FFFFFF" stroke-width="0.5" stroke-miterlimit="10" d="M83.642,26.625
		c0.741,0.174,0.463,0.584-0.865,1.061L43.236,41.883c-1.771,0.637-4.736,1.152-6.625,1.152H2.31
		c-0.707-0.001-1.163-0.073-1.363-0.197"/>
	<path opacity="0.35" fill="none" stroke="#FFFFFF" stroke-width="0.5" stroke-miterlimit="10" d="M1.207,42.937
		c-0.333-0.207,0.045-0.558,1.151-0.955l39.541-14.197c1.771-0.636,4.736-1.151,6.625-1.151h34.3c0.472,0,0.832,0.032,1.078,0.091"
		/>
	<ellipse fill="#FFFFFF" cx="32.301" cy="24.125" rx="1.367" ry="1.5"/>
	<ellipse fill="#FFFFFF" cx="28.313" cy="24.125" rx="1.367" ry="1.5"/>
	<polygon opacity="0.8" fill="#5BB6A2" points="84.103,42.501 40.168,57.917 40.168,55.75 84.103,40.334 	"/>
	<polyline fill="none" stroke="#FFFFFF" stroke-width="0.5" stroke-miterlimit="10" points="0.888,55.504 0.888,65.875 
		2.668,68.375 	"/>
	<path fill="none" stroke="#FFFFFF" stroke-width="0.5" stroke-miterlimit="10" d="M83.642,52.063
		c0.741,0.174,0.463,0.584-0.865,1.061L43.236,67.321c-1.771,0.637-4.736,1.152-6.625,1.152H2.31
		c-0.707-0.001-1.163-0.073-1.363-0.197"/>
	<path opacity="0.35" fill="none" stroke="#FFFFFF" stroke-width="0.5" stroke-miterlimit="10" d="M1.207,68.375
		c-0.333-0.207,0.045-0.558,1.151-0.955l39.541-14.197c1.771-0.636,4.736-1.151,6.625-1.151h34.3c0.472,0,0.832,0.032,1.078,0.091"
		/>
	<ellipse fill="#FFFFFF" cx="32.301" cy="62.375" rx="1.367" ry="1.5"/>
	<ellipse fill="#FFFFFF" cx="28.313" cy="62.375" rx="1.367" ry="1.5"/>
	<ellipse fill="#FFFFFF" cx="32.301" cy="36.466" rx="1.367" ry="1.5"/>
	<ellipse fill="#FFFFFF" cx="28.313" cy="36.466" rx="1.367" ry="1.5"/>
	<ellipse fill="#FFFFFF" cx="32.301" cy="50.25" rx="1.367" ry="1.5"/>
	<ellipse fill="#FFFFFF" cx="28.313" cy="50.25" rx="1.367" ry="1.5"/>
	<path fill="none" stroke="#FFFFFF" stroke-width="0.5" stroke-miterlimit="10" d="M83.642,39.446
		c0.741,0.174,0.463,0.584-0.865,1.061L43.236,54.704c-1.771,0.637-4.736,1.152-6.625,1.152H2.31
		c-0.707-0.001-1.163-0.073-1.363-0.197"/>
	<path opacity="0.35" fill="none" stroke="#FFFFFF" stroke-miterlimit="10" d="M1.207,55.802c-0.333-0.207,0.045-0.558,1.151-0.955
		L41.899,40.65c1.771-0.636,4.736-1.151,6.625-1.151h34.3c0.472,0,0.832,0.032,1.078,0.091"/>
	<polyline fill="none" stroke="#FFFFFF" stroke-width="0.5" stroke-miterlimit="10" points="2.668,42.995 0.888,40.496 
		0.888,30.125 1.778,29.938 	"/>
	<polyline fill="none" stroke="#FFFFFF" stroke-width="0.5" stroke-miterlimit="10" points="2.668,55.855 0.888,53.356 
		0.888,42.985 1.778,42.798 	"/>
	
		<linearGradient id="SVGID_3_" gradientUnits="userSpaceOnUse" x1="14.437" y1="40.4155" x2="58.4786" y2="40.4155" gradientTransform="matrix(-4.371139e-08 -1 1 -4.371139e-08 2.1807 82.811)">
		<stop  offset="0" style="stop-color:#FFFFFF"/>
		<stop  offset="1" style="stop-color:#FFFFFF;stop-opacity:0"/>
	</linearGradient>
	<polygon fill="url(#SVGID_3_)" points="84.103,17.5 84.103,68.375 1.09,68.375 1.09,43.036 2.668,42.995 1.09,40.496 1.09,17.5 	
		"/>
	<g display="none">
		<path display="inline" fill="#FFFFFF" d="M8.82-7.574c0.439,0,0.879,0,1.319,0c0,0.723,0,1.443,0,2.166
			c0.138,0.018,0.264,0.033,0.389,0.049c0.494,0.061,0.979,0.162,1.438,0.361c0.544,0.234,0.981,0.588,1.209,1.152
			c0.195,0.484,0.227,0.99,0.13,1.5c-0.085,0.449-0.304,0.826-0.664,1.113c-0.129,0.104-0.271,0.189-0.409,0.287
			c0.139,0.043,0.276,0.08,0.41,0.129c0.651,0.236,1.145,0.641,1.353,1.326c0.061,0.201,0.085,0.412,0.126,0.617
			c0,0.18,0,0.357,0,0.537c-0.03,0.189-0.053,0.381-0.091,0.57c-0.157,0.762-0.561,1.346-1.251,1.723
			C12.2,4.272,11.567,4.405,10.92,4.481c-0.257,0.031-0.516,0.051-0.785,0.078c0,0.727,0,1.451,0,2.178c-0.443,0-0.874,0-1.317,0
			c0-0.719,0-1.434,0-2.156c-0.355,0-0.699,0-1.057,0c0,0.723,0,1.439,0,2.154c-0.442,0-0.873,0-1.316,0c0-0.73,0-1.455,0-2.186
			c-0.041,0-0.07,0-0.101,0C5.54,4.545,4.735,4.543,3.93,4.54c-0.048,0-0.096-0.008-0.144-0.012c0-0.016,0-0.029,0-0.045
			c0.006-0.01,0.016-0.018,0.018-0.027C3.88,3.999,3.961,3.542,4.028,3.084c0.016-0.107,0.053-0.125,0.146-0.123
			c0.278,0.006,0.559-0.004,0.838,0.002c0.33,0.008,0.497-0.252,0.497-0.52C5.508,0.52,5.508-1.404,5.508-3.328
			c0-0.035-0.002-0.074-0.011-0.109C5.414-3.794,5.166-3.99,4.782-3.994C4.45-3.998,4.119-3.996,3.787-3.996
			c0-0.469,0-0.939,0-1.408c0.885,0,1.77,0,2.662,0c0-0.732,0-1.451,0-2.17c0.439,0,0.879,0,1.319,0c0,0.705,0,1.412,0,2.111
			c0.356,0,0.7,0,1.052,0C8.82-6.175,8.82-6.875,8.82-7.574z M7.798,0.077c0,0.973,0,1.932,0,2.896
			c0.028,0.002,0.05,0.006,0.071,0.006C8.525,2.995,9.18,2.993,9.83,2.891c0.329-0.051,0.651-0.133,0.951-0.287
			c0.433-0.221,0.706-0.557,0.717-1.057c0.009-0.461-0.191-0.824-0.59-1.066c-0.467-0.283-0.991-0.369-1.521-0.4
			C8.9,0.053,8.412,0.069,7.924,0.067C7.883,0.067,7.843,0.073,7.798,0.077z M7.798-3.896c0,0.885,0,1.756,0,2.629
			C8.293-1.246,8.78-1.246,9.266-1.304c0.359-0.045,0.704-0.125,1.028-0.295c0.792-0.414,0.752-1.535,0.069-1.945
			C10-3.761,9.6-3.853,9.188-3.878c-0.412-0.027-0.826-0.02-1.239-0.025C7.901-3.906,7.853-3.9,7.798-3.896z"/>
	</g>
	<linearGradient id="SVGID_4_" gradientUnits="userSpaceOnUse" x1="0.8882" y1="9.2505" x2="84.103" y2="9.2505">
		<stop  offset="0" style="stop-color:#5EB59F"/>
		<stop  offset="1" style="stop-color:#5EB59F;stop-opacity:0"/>
	</linearGradient>
	<path fill="url(#SVGID_4_)" stroke="#FFFFFF" stroke-width="0.5" stroke-miterlimit="10" d="M43.294,16.349
		c-1.771,0.637-4.736,1.151-6.625,1.151h-34.3c-1.888,0-1.984-0.515-0.212-1.151L41.698,2.152C43.468,1.516,46.434,1,48.323,1h34.3
		c1.889,0,1.983,0.516,0.213,1.151L43.294,16.349z"/>
</g>
</svg>
