<?xml version="1.0" encoding="utf-8"?>
<!-- Generator: Adobe Illustrator 16.0.0, SVG Export Plug-In . SVG Version: 6.00 Build 0)  -->
<!DOCTYPE svg PUBLIC "-//W3C//DTD SVG 1.1//EN" "http://www.w3.org/Graphics/SVG/1.1/DTD/svg11.dtd">
<svg version="1.1" id="Layer_1" xmlns="http://www.w3.org/2000/svg" xmlns:xlink="http://www.w3.org/1999/xlink" x="0px" y="0px"
	 width="50px" height="8px" viewBox="0 0 50 8" enable-background="new 0 0 50 8" xml:space="preserve">
<g>
	<path fill="#FFFFFF" d="M4.147,6.32C3.665,6.793,3.158,6.979,2.541,6.979c-1.209,0-2.215-0.728-2.215-2.206
		c0-1.479,1.006-2.206,2.215-2.206c0.592,0,1.048,0.169,1.505,0.616L3.395,3.869c-0.245-0.22-0.549-0.33-0.837-0.33
		c-0.693,0-1.2,0.507-1.2,1.234c0,0.794,0.541,1.217,1.184,1.217c0.329,0,0.659-0.093,0.913-0.347L4.147,6.32z"/>
	<path fill="#FFFFFF" d="M5.628,0.944v5.908H4.605V0.944H5.628z"/>
	<path fill="#FFFFFF" d="M10.676,4.773c0,1.2-0.82,2.172-2.173,2.172S6.339,5.974,6.339,4.773c0-1.192,0.829-2.173,2.156-2.173
		S10.676,3.581,10.676,4.773z M7.37,4.773c0,0.634,0.381,1.226,1.133,1.226c0.753,0,1.133-0.592,1.133-1.226
		c0-0.626-0.439-1.234-1.133-1.234C7.76,3.539,7.37,4.147,7.37,4.773z"/>
	<path fill="#FFFFFF" d="M12.444,2.686v2.181c0,0.634,0.347,1.115,1.006,1.115c0.634,0,1.065-0.532,1.065-1.166v-2.13h1.022v4.176
		h-0.921l-0.068-0.566c-0.431,0.422-0.828,0.625-1.411,0.625c-0.998,0-1.725-0.752-1.725-2.045V2.686H12.444z"/>
	<path fill="#FFFFFF" d="M20.781,0.944v5.908h-0.963L19.75,6.277c-0.321,0.499-0.837,0.668-1.344,0.668
		c-1.226,0-2.147-0.812-2.147-2.181c0-1.437,0.905-2.181,2.122-2.181c0.439,0,1.124,0.236,1.369,0.668V0.944H20.781z M17.29,4.765
		c0,0.727,0.524,1.226,1.184,1.226c0.651,0,1.209-0.474,1.209-1.226c0-0.727-0.558-1.217-1.209-1.217
		C17.814,3.548,17.29,4.013,17.29,4.765z"/>
	<path fill="#FFFFFF" d="M22.019,6.853V3.649H21.24V2.744h0.778V2.466c0-1.116,0.752-1.632,1.589-1.632
		c0.363,0,0.744,0.118,1.082,0.338l-0.38,0.77c-0.22-0.144-0.423-0.22-0.635-0.22c-0.354,0-0.625,0.236-0.625,0.744v0.278h1.226
		v0.905H23.05v3.203H22.019z"/>
	<path fill="#FFFFFF" d="M28.394,2.686h0.989v4.167H28.41l-0.051-0.608c-0.236,0.49-0.888,0.727-1.353,0.735
		c-1.233,0.009-2.146-0.753-2.146-2.215c0-1.437,0.955-2.189,2.172-2.181c0.558,0,1.091,0.262,1.327,0.676L28.394,2.686z
		 M25.892,4.765c0,0.795,0.549,1.268,1.233,1.268c1.623,0,1.623-2.527,0-2.527C26.44,3.505,25.892,3.97,25.892,4.765z"/>
	<path fill="#FFFFFF" d="M31.21,2.686l0.076,0.481c0.321-0.516,0.753-0.592,1.176-0.592c0.431,0,0.845,0.169,1.073,0.397
		L33.07,3.869c-0.212-0.178-0.406-0.271-0.744-0.271c-0.541,0-1.04,0.287-1.04,1.057v2.197h-1.031V2.686H31.21z"/>
	<path fill="#FFFFFF" d="M36.699,6.853V4.621c0-0.55-0.288-1.048-0.854-1.048c-0.558,0-0.888,0.498-0.888,1.048v2.231h-1.031V2.677
		h0.955l0.076,0.507c0.22-0.422,0.702-0.574,1.1-0.574c0.498,0,0.997,0.203,1.233,0.777c0.372-0.592,0.854-0.761,1.396-0.761
		c1.184,0,1.767,0.728,1.767,1.979v2.248h-1.031V4.604c0-0.55-0.229-1.015-0.786-1.015c-0.559,0-0.904,0.481-0.904,1.031v2.231
		H36.699z"/>
	<path fill="#FFFFFF" d="M42.383,5.137c0.067,0.516,0.516,0.888,1.242,0.888c0.381,0,0.879-0.144,1.116-0.39L45.4,6.286
		c-0.439,0.456-1.158,0.677-1.792,0.677c-1.438,0-2.291-0.888-2.291-2.224c0-1.268,0.862-2.181,2.215-2.181
		c1.395,0,2.266,0.862,2.104,2.578H42.383z M44.647,4.283c-0.067-0.541-0.49-0.812-1.082-0.812c-0.558,0-1.014,0.271-1.166,0.812
		H44.647z"/>
	<path fill="#FFFFFF" d="M47.389,2.686l0.076,0.481c0.321-0.516,0.753-0.592,1.176-0.592c0.431,0,0.845,0.169,1.073,0.397
		l-0.465,0.896c-0.212-0.178-0.406-0.271-0.744-0.271c-0.541,0-1.04,0.287-1.04,1.057v2.197h-1.031V2.686H47.389z"/>
</g>
</svg>
